<svg xmlns="http://www.w3.org/2000/svg" version="1.1" xmlns:xlink="http://www.w3.org/1999/xlink" xmlns:svgjs="http://svgjs.dev/svgjs" width="2000" height="1247" viewBox="0 0 2000 1247"><g transform="matrix(1,0,0,1,-1.2121212121212466,0.504858299595071)"><svg viewBox="0 0 396 247" data-background-color="#ffffff" preserveAspectRatio="xMidYMid meet" height="1247" width="2000" xmlns="http://www.w3.org/2000/svg" xmlns:xlink="http://www.w3.org/1999/xlink"><g id="tight-bounds" transform="matrix(1,0,0,1,0.2400000000000091,-0.09999999999999432)"><svg viewBox="0 0 395.52 247.2" height="247.2" width="395.52"><g><svg></svg></g><g><svg viewBox="0 0 395.52 247.2" height="247.2" width="395.52"><g transform="matrix(1,0,0,1,152.62882809160305,47.215199999999996)"><svg viewBox="0 0 90.2623438167939 152.7696" height="152.7696" width="90.2623438167939"><g><svg viewBox="0 0 90.2623438167939 152.7696" height="152.7696" width="90.2623438167939"><g><svg viewBox="0 0 90.2623438167939 152.7696" height="152.7696" width="90.2623438167939"><g><svg viewBox="0 0 90.2623438167939 152.7696" height="152.7696" width="90.2623438167939"><g id="textblocktransform"><svg viewBox="0 0 90.2623438167939 152.7696" height="152.7696" width="90.2623438167939" id="textblock"><g><svg viewBox="0 0 90.2623438167939 152.7696" height="152.7696" width="90.2623438167939"><g transform="matrix(1,0,0,1,0,0)"><svg width="90.2623438167939" viewBox="3.05 -32.75 19.349999999999998 32.75" height="152.7696" data-palette-color="#ff4136"><path d="M13.4-13.45L13.4-13.45Q10.7-13.3 9.9-13.3L9.9-13.3 5.8-13.3 5.8 0 3.05 0 3.05-32.75 10.4-32.75Q16.5-32.75 19.35-30.65 22.2-28.55 22.2-23.25L22.2-23.25Q22.2-19.7 20.78-17.55 19.35-15.4 16.2-14.05L16.2-14.05Q19.6-7.6 22.4 0L22.4 0 19.4 0Q16.65-7.3 13.4-13.45ZM10.3-30.25L10.3-30.25 5.8-30.25 5.8-15.8 9.8-15.8Q14.4-15.8 16.85-17.48 19.3-19.15 19.3-23.25 19.3-27.35 17.13-28.8 14.95-30.25 10.3-30.25Z" opacity="1" transform="matrix(1,0,0,1,0,0)" fill="#ff4136" class="wordmark-text-0" data-fill-palette-color="primary" id="text-0"></path></svg></g></svg></g></svg></g></svg></g></svg></g></svg></g></svg></g><g><path d="M168.731 0c30.402 0 58.24 10.976 79.768 29.183l-11.147 0c-19.26-14.022-42.974-22.294-68.621-22.295-25.647 0-49.361 8.272-68.621 22.295l-11.147 0c21.528-18.206 49.366-29.183 79.768-29.183zM168.731 247.2c-30.402 0-58.24-10.976-79.768-29.183h11.147c19.26 14.022 42.974 22.294 68.621 22.295 25.647 0 49.361-8.272 68.621-22.295h11.147c-21.528 18.206-49.366 29.183-79.768 29.183z" fill="#ff4136" stroke="transparent" data-fill-palette-color="tertiary"></path></g></svg></g><defs></defs></svg><rect width="395.52" height="247.2" fill="none" stroke="none" visibility="hidden"></rect></g></svg></g></svg>